<?xml version="1.0" standalone="no"?><!DOCTYPE svg PUBLIC "-//W3C//DTD SVG 1.1//EN" "http://www.w3.org/Graphics/SVG/1.1/DTD/svg11.dtd"><svg t="1656986947113" class="icon" viewBox="0 0 1024 1024" version="1.1" xmlns="http://www.w3.org/2000/svg" p-id="11924" xmlns:xlink="http://www.w3.org/1999/xlink" width="200" height="200"><defs><style type="text/css">@font-face { font-family: feedback-iconfont; src: url("//at.alicdn.com/t/font_1031158_u69w8yhxdu.woff2?t=1630033759944") format("woff2"), url("//at.alicdn.com/t/font_1031158_u69w8yhxdu.woff?t=1630033759944") format("woff"), url("//at.alicdn.com/t/font_1031158_u69w8yhxdu.ttf?t=1630033759944") format("truetype"); }
</style></defs><path d="M1024 275.2c-3.2 99.2-73.6 236.8-208 409.6-140.8 182.4-256 272-352 272-60.8 0-108.8-54.4-150.4-166.4-28.8-102.4-54.4-201.6-83.2-304-32-108.8-64-166.4-99.2-166.4-6.4 0-35.2 16-80 48L0 307.2c51.2-44.8 99.2-89.6 150.4-134.4 67.2-57.6 118.4-89.6 150.4-92.8 80-6.4 128 48 147.2 163.2 19.2 124.8 35.2 204.8 41.6 233.6 22.4 105.6 48 156.8 76.8 156.8 22.4 0 54.4-35.2 96-102.4s67.2-118.4 70.4-153.6c6.4-57.6-16-86.4-70.4-86.4-25.6 0-51.2 6.4-76.8 16 51.2-166.4 147.2-246.4 288-240 105.6 6.4 156.8 73.6 150.4 208z" fill="#1890ff" p-id="11925"></path></svg>